<mxfile host="65bd71144e">
    <diagram id="STNWzKey5gT1pbEaQYfi" name="Page-1">
        <mxGraphModel dx="598" dy="601" grid="1" gridSize="10" guides="1" tooltips="1" connect="1" arrows="1" fold="1" page="1" pageScale="1" pageWidth="827" pageHeight="1169" math="0" shadow="0">
            <root>
                <mxCell id="0"/>
                <mxCell id="1" parent="0"/>
                <mxCell id="10" value="Click the Cookie" style="swimlane;startSize=60;" parent="1" vertex="1">
                    <mxGeometry x="80" y="90" width="490" height="380" as="geometry"/>
                </mxCell>
                <mxCell id="12" value="You have ... cookies" style="text;html=1;strokeColor=none;fillColor=none;align=center;verticalAlign=middle;whiteSpace=wrap;rounded=0;" parent="10" vertex="1">
                    <mxGeometry x="30" y="170" width="130" height="30" as="geometry"/>
                </mxCell>
                <mxCell id="14" value="Actor" style="shape=umlActor;verticalLabelPosition=bottom;verticalAlign=top;html=1;outlineConnect=0;" parent="10" vertex="1">
                    <mxGeometry x="50" y="70" width="70" height="80" as="geometry"/>
                </mxCell>
            </root>
        </mxGraphModel>
    </diagram>
</mxfile>